<svg xmlns="http://www.w3.org/2000/svg" width="480" height="239" viewBox="0 0 480 239">
    <g>
        <path fill="#fff" d="M328.222 63.822c8.32-3.266 16.606-4.758 25.193-4.396 29.66 1.256 53.872 24.17 56.79 53.734 3.132 31.714-18.743 59.95-50.34 64.992-32.836 5.24-64.28-18.545-68.21-51.564-.3-2.52-.44-5.036-.435-7.57.008-30.114-.006-60.228.008-90.346 0-9.654 7.066-17.518 16.627-18.564 9.187-1.004 17.712 5.115 19.976 14.284.375 1.52.385 3.042.385 4.576.007 11.48.007 22.966.007 34.854zm45.24 55.308c.04-12.342-10.2-22.56-22.617-22.565-12.265-.003-22.465 10.072-22.623 22.344-.154 12.225 10.17 22.645 22.535 22.734 12.343.085 22.667-10.145 22.704-22.514z"/>
        <path fill="#FFDC00" d="M235.458 96.407c-8.818.576-17.32 8.646-19.173 17.824-2.048 10.147 2.5 20.202 11.382 25.127 9.113 5.056 19.737 3.638 27.524-3.683 10.896-10.23 27.88-5.67 31.358 8.53 1.645 6.712.06 12.876-4.98 17.666-17.067 16.225-37.285 21.59-59.776 14.95-22.552-6.66-36.884-22.2-41.743-45.214-7.164-33.96 14.194-65.625 48.246-71.853 20.363-3.726 38.312 2.026 53.21 16.507 7.632 7.428 7.537 18.96.06 26.486-9.75 9.826-19.54 19.613-29.364 29.365-7.414 7.374-19.034 7.407-26.313.165-7.395-7.355-7.326-18.977.166-26.508 3.048-3.06 6.12-6.095 9.402-9.36zm-38.987 52.38l.105-.166-.157-.022.053.188z"/>
        <path fill="#fff" d="M123.582 120.708c8.958-17.102 17.695-33.79 26.44-50.476 6.04-11.53 19.563-14.4 29.216-6.203 6.387 5.42 8.155 14.79 4.064 22.71-7.577 14.655-15.274 29.246-22.926 43.87-6.69 12.77-13.403 25.538-20.095 38.32-3.538 6.745-9.08 10.45-16.727 10.474-7.66.035-13.262-3.657-16.792-10.385-14.366-27.376-28.694-54.772-43.017-82.173-4.844-9.265-1.494-20.467 7.492-25.24 9.326-4.952 20.516-1.437 25.48 8.034 8.496 16.21 16.968 32.426 25.455 48.64.366.694.792 1.363 1.412 2.428zM238.846 209.004c-4.34 0-8.68.04-13.02-.023-3.615-.054-5.95-1.868-6.31-4.704-.493-3.857 1.87-6.46 6.08-6.516 5.785-.066 11.568-.014 17.355-.014.547 0 1.09.014 1.628-.01.704-.024 1.492.13 1.566-.967.094-1.365-.884-1.11-1.645-1.11-6.058-.014-12.11.022-18.17-.02-4.042-.036-6.738-2.65-6.853-6.497-.12-4.166 2.587-7.035 6.8-7.047 8.5-.044 16.996-.044 25.492 0 4.612.023 7.84 3.266 7.866 7.815.023 3.893.008 7.772 0 11.658 0 4.838-2.3 7.29-7.234 7.397-4.515.114-9.04.04-13.556.04zM238.876 224.51c-2.35 0-4.7.033-7.05-.015-3.434-.077-6.032-2.69-6.275-6.218-.233-3.405 2.113-6.838 5.406-7.01 5.317-.297 10.668-.29 15.983-.06 3.188.136 5.687 3.663 5.49 6.99-.196 3.438-2.897 6.21-6.232 6.296-2.438.06-4.878.016-7.322.016zM32.82 121.55c7.824 6.48 11.273 14.616 10.99 24.642-.307 10.935-.15 21.883-.142 32.83.005 9.9 6.872 17.078 16.782 17.638 3.564.198 5.993 2.55 5.917 5.735-.078 3.342-2.596 5.487-6.42 5.465-15.282-.103-27.91-13.586-27.498-29.006.308-11.475.296-22.957.235-34.44-.05-9.44-6.516-16.29-15.995-17.312-.717-.076-1.442-.106-2.15-.238-2.854-.532-4.712-2.943-4.526-5.844.172-2.754 2.225-4.875 4.997-5.167 12.104-1.275 17.746-7.54 17.7-19.798-.052-12.388-.08-24.775-.308-37.16-.283-15.21 12.728-28.703 27.725-28.543 4.554.047 7.33 3.567 5.846 7.477-.844 2.224-2.46 3.445-4.888 3.648-11.35.947-17.438 7.576-17.423 18.967.015 12.027-.128 24.06.145 36.083.224 10.074-3.264 18.32-10.988 25.023zM438.45 121.56c-8.004-6.972-11.332-15.535-11.036-25.895.34-12.113.172-24.243.15-36.366-.017-10.155-6.702-17.148-16.908-17.82-3.618-.235-5.846-2.527-5.693-5.857.15-3.183 2.46-5.208 6.018-5.278 14.543-.29 27.76 12.617 27.794 27.31.03 13.296-.15 26.593-.14 39.887.004 5.982 2.097 11.135 6.855 14.98 2.854 2.305 6.244 3.124 9.84 3.315 3.725.195 5.803 2.092 5.9 5.34.104 3.374-1.92 5.427-5.736 5.81-10.847 1.09-16.903 7.752-16.873 18.688.024 11.21.15 22.43.166 33.642.03 15.307-11.39 27.54-26.588 28.54-4.588.298-7.5-2.106-7.215-5.968.212-2.98 2.356-5.014 5.53-5.23 10.635-.77 17.064-7.584 17.052-18.18-.018-11.22-.1-22.43-.168-33.652-.067-9.46 3.642-17.15 11.052-23.27zM195.804 147.81c-9.795-12.198-13.755-26.106-10.656-41.392 4.352-21.456 17.523-35.435 38.734-40.78 16.327-4.11 31.35-.272 44.48 10.455-22.888-10.328-44.42-8.19-62.34 9.553-17.884 17.705-20.118 39.21-10.218 62.163zM240.748 98.49c-2.348 4.99-5.793 9.31-8.58 14.04-1.646 2.797-3.464 5.492-5.26 8.195-.49.736-.767 2.145-2.13 1.41-1.025-.553-1.477-1.665-1.22-2.793.218-.943.6-1.956 1.21-2.688 5.015-6.028 10.1-12.002 15.186-17.973.142-.17.485-.163.74-.237l.054.046z"/>
    </g>
</svg>
